<svg width="548" height="579" viewBox="0 0 548 579" fill="none" xmlns="http://www.w3.org/2000/svg">
<rect width="548" height="579" fill="white"/>
<g filter="url(#filter0_d)">
<path d="M4 95.1315L273.886 0L544 95.1315V478.946L273.886 571L4 478.946V95.1315Z" fill="#08D9D6"/>
</g>
<g filter="url(#filter1_d)">
<path d="M274 130.5C186.739 130.5 116 199.896 116 285.5C116 371.104 186.739 440.5 274 440.5C361.261 440.5 432 371.104 432 285.5C431.901 199.936 361.22 130.597 274 130.5ZM274 430.167C192.556 430.167 126.533 365.397 126.533 285.5C126.533 205.603 192.556 140.833 274 140.833C355.444 140.833 421.467 205.603 421.467 285.5C421.374 365.359 355.405 430.076 274 430.167Z" fill="white"/>
<path d="M274 130.5C186.739 130.5 116 199.896 116 285.5C116 371.104 186.739 440.5 274 440.5C361.261 440.5 432 371.104 432 285.5C431.901 199.936 361.22 130.597 274 130.5ZM274 430.167C192.556 430.167 126.533 365.397 126.533 285.5C126.533 205.603 192.556 140.833 274 140.833C355.444 140.833 421.467 205.603 421.467 285.5C421.374 365.359 355.405 430.076 274 430.167Z" fill="url(#paint0_linear)"/>
<path d="M274 130.5C186.739 130.5 116 199.896 116 285.5C116 371.104 186.739 440.5 274 440.5C361.261 440.5 432 371.104 432 285.5C431.901 199.936 361.22 130.597 274 130.5ZM274 430.167C192.556 430.167 126.533 365.397 126.533 285.5C126.533 205.603 192.556 140.833 274 140.833C355.444 140.833 421.467 205.603 421.467 285.5C421.374 365.359 355.405 430.076 274 430.167Z" stroke="white" stroke-width="4"/>
</g>
<g filter="url(#filter2_d)">
<path d="M273.5 163.5C204.741 163.5 149 218.121 149 285.5C149 352.879 204.741 407.5 273.5 407.5C342.259 407.5 398 352.879 398 285.5C397.923 218.152 342.228 163.575 273.5 163.5ZM273.5 398.115C210.03 398.115 158.577 347.696 158.577 285.5C158.577 223.304 210.03 172.885 273.5 172.885C336.97 172.885 388.423 223.304 388.423 285.5C388.349 347.665 336.939 398.043 273.5 398.115Z" fill="white"/>
<path d="M273.5 163.5C204.741 163.5 149 218.121 149 285.5C149 352.879 204.741 407.5 273.5 407.5C342.259 407.5 398 352.879 398 285.5C397.923 218.152 342.228 163.575 273.5 163.5ZM273.5 398.115C210.03 398.115 158.577 347.696 158.577 285.5C158.577 223.304 210.03 172.885 273.5 172.885C336.97 172.885 388.423 223.304 388.423 285.5C388.349 347.665 336.939 398.043 273.5 398.115Z" fill="url(#paint1_linear)"/>
<path d="M273.5 163.5C204.741 163.5 149 218.121 149 285.5C149 352.879 204.741 407.5 273.5 407.5C342.259 407.5 398 352.879 398 285.5C397.923 218.152 342.228 163.575 273.5 163.5ZM273.5 398.115C210.03 398.115 158.577 347.696 158.577 285.5C158.577 223.304 210.03 172.885 273.5 172.885C336.97 172.885 388.423 223.304 388.423 285.5C388.349 347.665 336.939 398.043 273.5 398.115Z" stroke="white" stroke-width="4"/>
</g>
<g filter="url(#filter3_d)">
<path d="M196 280.5H177V292.5H196V280.5Z" fill="white"/>
<path d="M196 280.5H177V292.5H196V280.5Z" fill="url(#paint2_linear)"/>
</g>
<g filter="url(#filter4_d)">
<path d="M370 280.5H351V292.5H370V280.5Z" fill="white"/>
<path d="M370 280.5H351V292.5H370V280.5Z" fill="url(#paint3_linear)"/>
</g>
<g filter="url(#filter5_d)">
<path d="M202.298 322.782L187.711 331.368L191.921 338.805L206.507 330.22L202.298 322.782Z" fill="white"/>
<path d="M202.298 322.782L187.711 331.368L191.921 338.805L206.507 330.22L202.298 322.782Z" fill="url(#paint4_linear)"/>
</g>
<g filter="url(#filter6_d)">
<path d="M355.453 232.604L340.866 241.19L345.076 248.628L359.662 240.042L355.453 232.604Z" fill="white"/>
<path d="M355.453 232.604L340.866 241.19L345.076 248.628L359.662 240.042L355.453 232.604Z" fill="url(#paint5_linear)"/>
</g>
<g filter="url(#filter7_d)">
<path d="M191.925 232.602L187.716 240.04L202.302 248.626L206.512 241.188L191.925 232.602Z" fill="white"/>
<path d="M191.925 232.602L187.716 240.04L202.302 248.626L206.512 241.188L191.925 232.602Z" fill="url(#paint6_linear)"/>
</g>
<g filter="url(#filter8_d)">
<path d="M345.079 322.752L340.869 330.19L355.456 338.776L359.665 331.338L345.079 322.752Z" fill="white"/>
<path d="M345.079 322.752L340.869 330.19L355.456 338.776L359.665 331.338L345.079 322.752Z" fill="url(#paint7_linear)"/>
</g>
<g filter="url(#filter9_d)">
<path d="M228.899 198.028L221.606 202.321L230.025 217.196L237.318 212.903L228.899 198.028Z" fill="white"/>
<path d="M228.899 198.028L221.606 202.321L230.025 217.196L237.318 212.903L228.899 198.028Z" fill="url(#paint8_linear)"/>
</g>
<g filter="url(#filter10_d)">
<path d="M276 186.5H271V204.5H276V186.5Z" fill="white"/>
<path d="M276 186.5H271V204.5H276V186.5Z" fill="url(#paint9_linear)"/>
</g>
<g filter="url(#filter11_d)">
<path d="M318.456 198.021L310.037 212.897L317.33 217.19L325.75 202.314L318.456 198.021Z" fill="white"/>
<path d="M318.456 198.021L310.037 212.897L317.33 217.19L325.75 202.314L318.456 198.021Z" fill="url(#paint10_linear)"/>
</g>
<g filter="url(#filter12_d)">
<path d="M181.235 255.989L179.055 264.284L191.256 267.618L193.435 259.323L181.235 255.989Z" fill="white"/>
<path d="M181.235 255.989L179.055 264.284L191.256 267.618L193.435 259.323L181.235 255.989Z" fill="url(#paint11_linear)"/>
</g>
<g filter="url(#filter13_d)">
<path d="M356.088 303.771L353.908 312.066L366.109 315.4L368.288 307.105L356.088 303.771Z" fill="white"/>
<path d="M356.088 303.771L353.908 312.066L366.109 315.4L368.288 307.105L356.088 303.771Z" fill="url(#paint12_linear)"/>
</g>
<g filter="url(#filter14_d)">
<path d="M208.19 212.832L202.235 218.904L211.167 228.013L217.121 221.941L208.19 212.832Z" fill="white"/>
<path d="M208.19 212.832L202.235 218.904L211.167 228.013L217.121 221.941L208.19 212.832Z" fill="url(#paint13_linear)"/>
</g>
<g filter="url(#filter15_d)">
<path d="M252.671 189.202L244.538 191.425L247.807 203.867L255.94 201.644L252.671 189.202Z" fill="white"/>
<path d="M252.671 189.202L244.538 191.425L247.807 203.867L255.94 201.644L252.671 189.202Z" fill="url(#paint14_linear)"/>
</g>
<g filter="url(#filter16_d)">
<path d="M294.677 189.224L291.408 201.666L299.541 203.888L302.81 191.446L294.677 189.224Z" fill="white"/>
<path d="M294.677 189.224L291.408 201.666L299.541 203.888L302.81 191.446L294.677 189.224Z" fill="url(#paint15_linear)"/>
</g>
<g filter="url(#filter17_d)">
<path d="M339.186 212.844L330.254 221.953L336.209 228.025L345.14 218.917L339.186 212.844Z" fill="white"/>
<path d="M339.186 212.844L330.254 221.953L336.209 228.025L345.14 218.917L339.186 212.844Z" fill="url(#paint16_linear)"/>
</g>
<g filter="url(#filter18_d)">
<path d="M366.158 255.99L353.958 259.324L356.137 267.619L368.337 264.285L366.158 255.99Z" fill="white"/>
<path d="M366.158 255.99L353.958 259.324L356.137 267.619L368.337 264.285L366.158 255.99Z" fill="url(#paint17_linear)"/>
</g>
<g filter="url(#filter19_d)">
<path d="M191.256 303.778L179.055 307.111L181.235 315.406L193.435 312.072L191.256 303.778Z" fill="white"/>
<path d="M191.256 303.778L179.055 307.111L181.235 315.406L193.435 312.072L191.256 303.778Z" fill="url(#paint18_linear)"/>
</g>
<g filter="url(#filter20_d)">
<path d="M291.45 214.814C254.017 204.805 215.855 228.193 206.213 267.055C201.645 285.466 204.209 305.003 213.357 321.474C214.553 323.481 217.091 324.102 219.024 322.86C220.876 321.671 221.515 319.19 220.484 317.2C203.45 286.522 213.597 247.318 243.146 229.635C272.696 211.951 310.459 222.485 327.493 253.162C335.563 267.696 337.824 284.935 333.792 301.18C333.223 303.467 334.549 305.8 336.752 306.39C338.955 306.981 341.202 305.604 341.771 303.317V303.304C351.413 264.443 328.883 224.825 291.45 214.814Z" fill="white"/>
<path d="M291.45 214.814C254.017 204.805 215.855 228.193 206.213 267.055C201.645 285.466 204.209 305.003 213.357 321.474C214.553 323.481 217.091 324.102 219.024 322.86C220.876 321.671 221.515 319.19 220.484 317.2C203.45 286.522 213.597 247.318 243.146 229.635C272.696 211.951 310.459 222.485 327.493 253.162C335.563 267.696 337.824 284.935 333.792 301.18C333.223 303.467 334.549 305.8 336.752 306.39C338.955 306.981 341.202 305.604 341.771 303.317V303.304C351.413 264.443 328.883 224.825 291.45 214.814Z" fill="url(#paint19_linear)"/>
<path d="M291.45 214.814C254.017 204.805 215.855 228.193 206.213 267.055C201.645 285.466 204.209 305.003 213.357 321.474C214.553 323.481 217.091 324.102 219.024 322.86C220.876 321.671 221.515 319.19 220.484 317.2C203.45 286.522 213.597 247.318 243.146 229.635C272.696 211.951 310.459 222.485 327.493 253.162C335.563 267.696 337.824 284.935 333.792 301.18C333.223 303.467 334.549 305.8 336.752 306.39C338.955 306.981 341.202 305.604 341.771 303.317V303.304C351.413 264.443 328.883 224.825 291.45 214.814Z" stroke="white" stroke-width="4"/>
</g>
<g filter="url(#filter21_d)">
<path d="M334.436 316.129L287.543 278.734C287.415 278.657 287.282 278.588 287.146 278.526C282.867 270.377 272.62 267.153 264.261 271.324C255.9 275.495 252.592 285.482 256.872 293.63C259.621 298.864 265.009 302.287 271.032 302.625L330.288 323.255C330.753 323.419 331.244 323.502 331.737 323.5C334.092 323.499 336 321.639 336 319.344C335.999 318.098 335.426 316.918 334.436 316.129ZM272.055 294.415C267.346 294.415 263.529 290.694 263.529 286.105C263.529 281.515 267.346 277.795 272.055 277.795C276.764 277.795 280.581 281.515 280.581 286.105C280.581 290.694 276.764 294.415 272.055 294.415ZM283.672 298.204C286.029 296.052 287.706 293.289 288.506 290.239L309.996 307.354L283.672 298.204Z" fill="white"/>
<path d="M334.436 316.129L287.543 278.734C287.415 278.657 287.282 278.588 287.146 278.526C282.867 270.377 272.62 267.153 264.261 271.324C255.9 275.495 252.592 285.482 256.872 293.63C259.621 298.864 265.009 302.287 271.032 302.625L330.288 323.255C330.753 323.419 331.244 323.502 331.737 323.5C334.092 323.499 336 321.639 336 319.344C335.999 318.098 335.426 316.918 334.436 316.129ZM272.055 294.415C267.346 294.415 263.529 290.694 263.529 286.105C263.529 281.515 267.346 277.795 272.055 277.795C276.764 277.795 280.581 281.515 280.581 286.105C280.581 290.694 276.764 294.415 272.055 294.415ZM283.672 298.204C286.029 296.052 287.706 293.289 288.506 290.239L309.996 307.354L283.672 298.204Z" fill="url(#paint20_linear)"/>
</g>
<g filter="url(#filter22_d)">
<path d="M290.889 326.5H257.111C245.452 326.5 236 336.574 236 349C236 361.426 245.452 371.5 257.111 371.5H290.889C302.548 371.5 312 361.426 312 349C312 336.574 302.548 326.5 290.889 326.5ZM290.889 362.5H257.111C250.115 362.5 244.444 356.456 244.444 349C244.444 341.544 250.115 335.5 257.111 335.5H290.889C297.885 335.5 303.556 341.544 303.556 349C303.556 356.456 297.885 362.5 290.889 362.5Z" fill="white"/>
<path d="M290.889 326.5H257.111C245.452 326.5 236 336.574 236 349C236 361.426 245.452 371.5 257.111 371.5H290.889C302.548 371.5 312 361.426 312 349C312 336.574 302.548 326.5 290.889 326.5ZM290.889 362.5H257.111C250.115 362.5 244.444 356.456 244.444 349C244.444 341.544 250.115 335.5 257.111 335.5H290.889C297.885 335.5 303.556 341.544 303.556 349C303.556 356.456 297.885 362.5 290.889 362.5Z" fill="url(#paint21_linear)"/>
</g>
<g filter="url(#filter23_d)">
<path d="M266.75 349.5H258.25C255.903 349.5 254 351.291 254 353.5C254 355.709 255.903 357.5 258.25 357.5H266.75C269.097 357.5 271 355.709 271 353.5C271 351.291 269.097 349.5 266.75 349.5Z" fill="white"/>
<path d="M266.75 349.5H258.25C255.903 349.5 254 351.291 254 353.5C254 355.709 255.903 357.5 258.25 357.5H266.75C269.097 357.5 271 355.709 271 353.5C271 351.291 269.097 349.5 266.75 349.5Z" fill="url(#paint22_linear)"/>
</g>
<g filter="url(#filter24_d)">
<path d="M289.5 349.5H280.5C278.015 349.5 276 351.291 276 353.5C276 355.709 278.015 357.5 280.5 357.5H289.5C291.985 357.5 294 355.709 294 353.5C294 351.291 291.985 349.5 289.5 349.5Z" fill="white"/>
<path d="M289.5 349.5H280.5C278.015 349.5 276 351.291 276 353.5C276 355.709 278.015 357.5 280.5 357.5H289.5C291.985 357.5 294 355.709 294 353.5C294 351.291 291.985 349.5 289.5 349.5Z" fill="url(#paint23_linear)"/>
</g>
<defs>
<filter id="filter0_d" x="0" y="0" width="548" height="579" filterUnits="userSpaceOnUse" color-interpolation-filters="sRGB">
<feFlood flood-opacity="0" result="BackgroundImageFix"/>
<feColorMatrix in="SourceAlpha" type="matrix" values="0 0 0 0 0 0 0 0 0 0 0 0 0 0 0 0 0 0 127 0"/>
<feOffset dy="4"/>
<feGaussianBlur stdDeviation="2"/>
<feColorMatrix type="matrix" values="0 0 0 0 0 0 0 0 0 0 0 0 0 0 0 0 0 0 0.25 0"/>
<feBlend mode="normal" in2="BackgroundImageFix" result="effect1_dropShadow"/>
<feBlend mode="normal" in="SourceGraphic" in2="effect1_dropShadow" result="shape"/>
</filter>
<filter id="filter1_d" x="110" y="128.5" width="328" height="322" filterUnits="userSpaceOnUse" color-interpolation-filters="sRGB">
<feFlood flood-opacity="0" result="BackgroundImageFix"/>
<feColorMatrix in="SourceAlpha" type="matrix" values="0 0 0 0 0 0 0 0 0 0 0 0 0 0 0 0 0 0 127 0"/>
<feOffset dy="4"/>
<feGaussianBlur stdDeviation="2"/>
<feColorMatrix type="matrix" values="0 0 0 0 0 0 0 0 0 0 0 0 0 0 0 0 0 0 0.25 0"/>
<feBlend mode="normal" in2="BackgroundImageFix" result="effect1_dropShadow"/>
<feBlend mode="normal" in="SourceGraphic" in2="effect1_dropShadow" result="shape"/>
</filter>
<filter id="filter2_d" x="143" y="161.5" width="261" height="256" filterUnits="userSpaceOnUse" color-interpolation-filters="sRGB">
<feFlood flood-opacity="0" result="BackgroundImageFix"/>
<feColorMatrix in="SourceAlpha" type="matrix" values="0 0 0 0 0 0 0 0 0 0 0 0 0 0 0 0 0 0 127 0"/>
<feOffset dy="4"/>
<feGaussianBlur stdDeviation="2"/>
<feColorMatrix type="matrix" values="0 0 0 0 0 0 0 0 0 0 0 0 0 0 0 0 0 0 0.25 0"/>
<feBlend mode="normal" in2="BackgroundImageFix" result="effect1_dropShadow"/>
<feBlend mode="normal" in="SourceGraphic" in2="effect1_dropShadow" result="shape"/>
</filter>
<filter id="filter3_d" x="173" y="280.5" width="27" height="20" filterUnits="userSpaceOnUse" color-interpolation-filters="sRGB">
<feFlood flood-opacity="0" result="BackgroundImageFix"/>
<feColorMatrix in="SourceAlpha" type="matrix" values="0 0 0 0 0 0 0 0 0 0 0 0 0 0 0 0 0 0 127 0"/>
<feOffset dy="4"/>
<feGaussianBlur stdDeviation="2"/>
<feColorMatrix type="matrix" values="0 0 0 0 0 0 0 0 0 0 0 0 0 0 0 0 0 0 0.25 0"/>
<feBlend mode="normal" in2="BackgroundImageFix" result="effect1_dropShadow"/>
<feBlend mode="normal" in="SourceGraphic" in2="effect1_dropShadow" result="shape"/>
</filter>
<filter id="filter4_d" x="347" y="280.5" width="27" height="20" filterUnits="userSpaceOnUse" color-interpolation-filters="sRGB">
<feFlood flood-opacity="0" result="BackgroundImageFix"/>
<feColorMatrix in="SourceAlpha" type="matrix" values="0 0 0 0 0 0 0 0 0 0 0 0 0 0 0 0 0 0 127 0"/>
<feOffset dy="4"/>
<feGaussianBlur stdDeviation="2"/>
<feColorMatrix type="matrix" values="0 0 0 0 0 0 0 0 0 0 0 0 0 0 0 0 0 0 0.25 0"/>
<feBlend mode="normal" in2="BackgroundImageFix" result="effect1_dropShadow"/>
<feBlend mode="normal" in="SourceGraphic" in2="effect1_dropShadow" result="shape"/>
</filter>
<filter id="filter5_d" x="183.711" y="322.782" width="26.7962" height="24.0235" filterUnits="userSpaceOnUse" color-interpolation-filters="sRGB">
<feFlood flood-opacity="0" result="BackgroundImageFix"/>
<feColorMatrix in="SourceAlpha" type="matrix" values="0 0 0 0 0 0 0 0 0 0 0 0 0 0 0 0 0 0 127 0"/>
<feOffset dy="4"/>
<feGaussianBlur stdDeviation="2"/>
<feColorMatrix type="matrix" values="0 0 0 0 0 0 0 0 0 0 0 0 0 0 0 0 0 0 0.25 0"/>
<feBlend mode="normal" in2="BackgroundImageFix" result="effect1_dropShadow"/>
<feBlend mode="normal" in="SourceGraphic" in2="effect1_dropShadow" result="shape"/>
</filter>
<filter id="filter6_d" x="336.866" y="232.604" width="26.7962" height="24.0235" filterUnits="userSpaceOnUse" color-interpolation-filters="sRGB">
<feFlood flood-opacity="0" result="BackgroundImageFix"/>
<feColorMatrix in="SourceAlpha" type="matrix" values="0 0 0 0 0 0 0 0 0 0 0 0 0 0 0 0 0 0 127 0"/>
<feOffset dy="4"/>
<feGaussianBlur stdDeviation="2"/>
<feColorMatrix type="matrix" values="0 0 0 0 0 0 0 0 0 0 0 0 0 0 0 0 0 0 0.25 0"/>
<feBlend mode="normal" in2="BackgroundImageFix" result="effect1_dropShadow"/>
<feBlend mode="normal" in="SourceGraphic" in2="effect1_dropShadow" result="shape"/>
</filter>
<filter id="filter7_d" x="183.716" y="232.602" width="26.7962" height="24.0235" filterUnits="userSpaceOnUse" color-interpolation-filters="sRGB">
<feFlood flood-opacity="0" result="BackgroundImageFix"/>
<feColorMatrix in="SourceAlpha" type="matrix" values="0 0 0 0 0 0 0 0 0 0 0 0 0 0 0 0 0 0 127 0"/>
<feOffset dy="4"/>
<feGaussianBlur stdDeviation="2"/>
<feColorMatrix type="matrix" values="0 0 0 0 0 0 0 0 0 0 0 0 0 0 0 0 0 0 0.25 0"/>
<feBlend mode="normal" in2="BackgroundImageFix" result="effect1_dropShadow"/>
<feBlend mode="normal" in="SourceGraphic" in2="effect1_dropShadow" result="shape"/>
</filter>
<filter id="filter8_d" x="336.869" y="322.752" width="26.7962" height="24.0235" filterUnits="userSpaceOnUse" color-interpolation-filters="sRGB">
<feFlood flood-opacity="0" result="BackgroundImageFix"/>
<feColorMatrix in="SourceAlpha" type="matrix" values="0 0 0 0 0 0 0 0 0 0 0 0 0 0 0 0 0 0 127 0"/>
<feOffset dy="4"/>
<feGaussianBlur stdDeviation="2"/>
<feColorMatrix type="matrix" values="0 0 0 0 0 0 0 0 0 0 0 0 0 0 0 0 0 0 0.25 0"/>
<feBlend mode="normal" in2="BackgroundImageFix" result="effect1_dropShadow"/>
<feBlend mode="normal" in="SourceGraphic" in2="effect1_dropShadow" result="shape"/>
</filter>
<filter id="filter9_d" x="217.606" y="198.028" width="23.7125" height="27.1683" filterUnits="userSpaceOnUse" color-interpolation-filters="sRGB">
<feFlood flood-opacity="0" result="BackgroundImageFix"/>
<feColorMatrix in="SourceAlpha" type="matrix" values="0 0 0 0 0 0 0 0 0 0 0 0 0 0 0 0 0 0 127 0"/>
<feOffset dy="4"/>
<feGaussianBlur stdDeviation="2"/>
<feColorMatrix type="matrix" values="0 0 0 0 0 0 0 0 0 0 0 0 0 0 0 0 0 0 0.25 0"/>
<feBlend mode="normal" in2="BackgroundImageFix" result="effect1_dropShadow"/>
<feBlend mode="normal" in="SourceGraphic" in2="effect1_dropShadow" result="shape"/>
</filter>
<filter id="filter10_d" x="267" y="186.5" width="13" height="26" filterUnits="userSpaceOnUse" color-interpolation-filters="sRGB">
<feFlood flood-opacity="0" result="BackgroundImageFix"/>
<feColorMatrix in="SourceAlpha" type="matrix" values="0 0 0 0 0 0 0 0 0 0 0 0 0 0 0 0 0 0 127 0"/>
<feOffset dy="4"/>
<feGaussianBlur stdDeviation="2"/>
<feColorMatrix type="matrix" values="0 0 0 0 0 0 0 0 0 0 0 0 0 0 0 0 0 0 0.25 0"/>
<feBlend mode="normal" in2="BackgroundImageFix" result="effect1_dropShadow"/>
<feBlend mode="normal" in="SourceGraphic" in2="effect1_dropShadow" result="shape"/>
</filter>
<filter id="filter11_d" x="306.037" y="198.021" width="23.7125" height="27.1683" filterUnits="userSpaceOnUse" color-interpolation-filters="sRGB">
<feFlood flood-opacity="0" result="BackgroundImageFix"/>
<feColorMatrix in="SourceAlpha" type="matrix" values="0 0 0 0 0 0 0 0 0 0 0 0 0 0 0 0 0 0 127 0"/>
<feOffset dy="4"/>
<feGaussianBlur stdDeviation="2"/>
<feColorMatrix type="matrix" values="0 0 0 0 0 0 0 0 0 0 0 0 0 0 0 0 0 0 0.25 0"/>
<feBlend mode="normal" in2="BackgroundImageFix" result="effect1_dropShadow"/>
<feBlend mode="normal" in="SourceGraphic" in2="effect1_dropShadow" result="shape"/>
</filter>
<filter id="filter12_d" x="175.055" y="255.989" width="22.3799" height="19.6284" filterUnits="userSpaceOnUse" color-interpolation-filters="sRGB">
<feFlood flood-opacity="0" result="BackgroundImageFix"/>
<feColorMatrix in="SourceAlpha" type="matrix" values="0 0 0 0 0 0 0 0 0 0 0 0 0 0 0 0 0 0 127 0"/>
<feOffset dy="4"/>
<feGaussianBlur stdDeviation="2"/>
<feColorMatrix type="matrix" values="0 0 0 0 0 0 0 0 0 0 0 0 0 0 0 0 0 0 0.25 0"/>
<feBlend mode="normal" in2="BackgroundImageFix" result="effect1_dropShadow"/>
<feBlend mode="normal" in="SourceGraphic" in2="effect1_dropShadow" result="shape"/>
</filter>
<filter id="filter13_d" x="349.908" y="303.771" width="22.3799" height="19.6284" filterUnits="userSpaceOnUse" color-interpolation-filters="sRGB">
<feFlood flood-opacity="0" result="BackgroundImageFix"/>
<feColorMatrix in="SourceAlpha" type="matrix" values="0 0 0 0 0 0 0 0 0 0 0 0 0 0 0 0 0 0 127 0"/>
<feOffset dy="4"/>
<feGaussianBlur stdDeviation="2"/>
<feColorMatrix type="matrix" values="0 0 0 0 0 0 0 0 0 0 0 0 0 0 0 0 0 0 0.25 0"/>
<feBlend mode="normal" in2="BackgroundImageFix" result="effect1_dropShadow"/>
<feBlend mode="normal" in="SourceGraphic" in2="effect1_dropShadow" result="shape"/>
</filter>
<filter id="filter14_d" x="198.235" y="212.832" width="22.8859" height="23.1806" filterUnits="userSpaceOnUse" color-interpolation-filters="sRGB">
<feFlood flood-opacity="0" result="BackgroundImageFix"/>
<feColorMatrix in="SourceAlpha" type="matrix" values="0 0 0 0 0 0 0 0 0 0 0 0 0 0 0 0 0 0 127 0"/>
<feOffset dy="4"/>
<feGaussianBlur stdDeviation="2"/>
<feColorMatrix type="matrix" values="0 0 0 0 0 0 0 0 0 0 0 0 0 0 0 0 0 0 0.25 0"/>
<feBlend mode="normal" in2="BackgroundImageFix" result="effect1_dropShadow"/>
<feBlend mode="normal" in="SourceGraphic" in2="effect1_dropShadow" result="shape"/>
</filter>
<filter id="filter15_d" x="240.538" y="189.202" width="19.4027" height="22.6645" filterUnits="userSpaceOnUse" color-interpolation-filters="sRGB">
<feFlood flood-opacity="0" result="BackgroundImageFix"/>
<feColorMatrix in="SourceAlpha" type="matrix" values="0 0 0 0 0 0 0 0 0 0 0 0 0 0 0 0 0 0 127 0"/>
<feOffset dy="4"/>
<feGaussianBlur stdDeviation="2"/>
<feColorMatrix type="matrix" values="0 0 0 0 0 0 0 0 0 0 0 0 0 0 0 0 0 0 0.25 0"/>
<feBlend mode="normal" in2="BackgroundImageFix" result="effect1_dropShadow"/>
<feBlend mode="normal" in="SourceGraphic" in2="effect1_dropShadow" result="shape"/>
</filter>
<filter id="filter16_d" x="287.408" y="189.224" width="19.4027" height="22.6645" filterUnits="userSpaceOnUse" color-interpolation-filters="sRGB">
<feFlood flood-opacity="0" result="BackgroundImageFix"/>
<feColorMatrix in="SourceAlpha" type="matrix" values="0 0 0 0 0 0 0 0 0 0 0 0 0 0 0 0 0 0 127 0"/>
<feOffset dy="4"/>
<feGaussianBlur stdDeviation="2"/>
<feColorMatrix type="matrix" values="0 0 0 0 0 0 0 0 0 0 0 0 0 0 0 0 0 0 0.25 0"/>
<feBlend mode="normal" in2="BackgroundImageFix" result="effect1_dropShadow"/>
<feBlend mode="normal" in="SourceGraphic" in2="effect1_dropShadow" result="shape"/>
</filter>
<filter id="filter17_d" x="326.254" y="212.844" width="22.8859" height="23.1806" filterUnits="userSpaceOnUse" color-interpolation-filters="sRGB">
<feFlood flood-opacity="0" result="BackgroundImageFix"/>
<feColorMatrix in="SourceAlpha" type="matrix" values="0 0 0 0 0 0 0 0 0 0 0 0 0 0 0 0 0 0 127 0"/>
<feOffset dy="4"/>
<feGaussianBlur stdDeviation="2"/>
<feColorMatrix type="matrix" values="0 0 0 0 0 0 0 0 0 0 0 0 0 0 0 0 0 0 0.25 0"/>
<feBlend mode="normal" in2="BackgroundImageFix" result="effect1_dropShadow"/>
<feBlend mode="normal" in="SourceGraphic" in2="effect1_dropShadow" result="shape"/>
</filter>
<filter id="filter18_d" x="349.958" y="255.99" width="22.3799" height="19.6284" filterUnits="userSpaceOnUse" color-interpolation-filters="sRGB">
<feFlood flood-opacity="0" result="BackgroundImageFix"/>
<feColorMatrix in="SourceAlpha" type="matrix" values="0 0 0 0 0 0 0 0 0 0 0 0 0 0 0 0 0 0 127 0"/>
<feOffset dy="4"/>
<feGaussianBlur stdDeviation="2"/>
<feColorMatrix type="matrix" values="0 0 0 0 0 0 0 0 0 0 0 0 0 0 0 0 0 0 0.25 0"/>
<feBlend mode="normal" in2="BackgroundImageFix" result="effect1_dropShadow"/>
<feBlend mode="normal" in="SourceGraphic" in2="effect1_dropShadow" result="shape"/>
</filter>
<filter id="filter19_d" x="175.055" y="303.778" width="22.3799" height="19.6284" filterUnits="userSpaceOnUse" color-interpolation-filters="sRGB">
<feFlood flood-opacity="0" result="BackgroundImageFix"/>
<feColorMatrix in="SourceAlpha" type="matrix" values="0 0 0 0 0 0 0 0 0 0 0 0 0 0 0 0 0 0 127 0"/>
<feOffset dy="4"/>
<feGaussianBlur stdDeviation="2"/>
<feColorMatrix type="matrix" values="0 0 0 0 0 0 0 0 0 0 0 0 0 0 0 0 0 0 0.25 0"/>
<feBlend mode="normal" in2="BackgroundImageFix" result="effect1_dropShadow"/>
<feBlend mode="normal" in="SourceGraphic" in2="effect1_dropShadow" result="shape"/>
</filter>
<filter id="filter20_d" x="198" y="210.498" width="151.999" height="123.003" filterUnits="userSpaceOnUse" color-interpolation-filters="sRGB">
<feFlood flood-opacity="0" result="BackgroundImageFix"/>
<feColorMatrix in="SourceAlpha" type="matrix" values="0 0 0 0 0 0 0 0 0 0 0 0 0 0 0 0 0 0 127 0"/>
<feOffset dy="4"/>
<feGaussianBlur stdDeviation="2"/>
<feColorMatrix type="matrix" values="0 0 0 0 0 0 0 0 0 0 0 0 0 0 0 0 0 0 0.25 0"/>
<feBlend mode="normal" in2="BackgroundImageFix" result="effect1_dropShadow"/>
<feBlend mode="normal" in="SourceGraphic" in2="effect1_dropShadow" result="shape"/>
</filter>
<filter id="filter21_d" x="251" y="269.5" width="89" height="62" filterUnits="userSpaceOnUse" color-interpolation-filters="sRGB">
<feFlood flood-opacity="0" result="BackgroundImageFix"/>
<feColorMatrix in="SourceAlpha" type="matrix" values="0 0 0 0 0 0 0 0 0 0 0 0 0 0 0 0 0 0 127 0"/>
<feOffset dy="4"/>
<feGaussianBlur stdDeviation="2"/>
<feColorMatrix type="matrix" values="0 0 0 0 0 0 0 0 0 0 0 0 0 0 0 0 0 0 0.25 0"/>
<feBlend mode="normal" in2="BackgroundImageFix" result="effect1_dropShadow"/>
<feBlend mode="normal" in="SourceGraphic" in2="effect1_dropShadow" result="shape"/>
</filter>
<filter id="filter22_d" x="232" y="326.5" width="84" height="53" filterUnits="userSpaceOnUse" color-interpolation-filters="sRGB">
<feFlood flood-opacity="0" result="BackgroundImageFix"/>
<feColorMatrix in="SourceAlpha" type="matrix" values="0 0 0 0 0 0 0 0 0 0 0 0 0 0 0 0 0 0 127 0"/>
<feOffset dy="4"/>
<feGaussianBlur stdDeviation="2"/>
<feColorMatrix type="matrix" values="0 0 0 0 0 0 0 0 0 0 0 0 0 0 0 0 0 0 0.25 0"/>
<feBlend mode="normal" in2="BackgroundImageFix" result="effect1_dropShadow"/>
<feBlend mode="normal" in="SourceGraphic" in2="effect1_dropShadow" result="shape"/>
</filter>
<filter id="filter23_d" x="250" y="349.5" width="25" height="16" filterUnits="userSpaceOnUse" color-interpolation-filters="sRGB">
<feFlood flood-opacity="0" result="BackgroundImageFix"/>
<feColorMatrix in="SourceAlpha" type="matrix" values="0 0 0 0 0 0 0 0 0 0 0 0 0 0 0 0 0 0 127 0"/>
<feOffset dy="4"/>
<feGaussianBlur stdDeviation="2"/>
<feColorMatrix type="matrix" values="0 0 0 0 0 0 0 0 0 0 0 0 0 0 0 0 0 0 0.25 0"/>
<feBlend mode="normal" in2="BackgroundImageFix" result="effect1_dropShadow"/>
<feBlend mode="normal" in="SourceGraphic" in2="effect1_dropShadow" result="shape"/>
</filter>
<filter id="filter24_d" x="272" y="349.5" width="26" height="16" filterUnits="userSpaceOnUse" color-interpolation-filters="sRGB">
<feFlood flood-opacity="0" result="BackgroundImageFix"/>
<feColorMatrix in="SourceAlpha" type="matrix" values="0 0 0 0 0 0 0 0 0 0 0 0 0 0 0 0 0 0 127 0"/>
<feOffset dy="4"/>
<feGaussianBlur stdDeviation="2"/>
<feColorMatrix type="matrix" values="0 0 0 0 0 0 0 0 0 0 0 0 0 0 0 0 0 0 0.25 0"/>
<feBlend mode="normal" in2="BackgroundImageFix" result="effect1_dropShadow"/>
<feBlend mode="normal" in="SourceGraphic" in2="effect1_dropShadow" result="shape"/>
</filter>
<linearGradient id="paint0_linear" x1="274" y1="130.5" x2="274" y2="440.5" gradientUnits="userSpaceOnUse">
<stop stop-color="white"/>
<stop offset="1" stop-color="white" stop-opacity="0"/>
</linearGradient>
<linearGradient id="paint1_linear" x1="273.5" y1="163.5" x2="273.5" y2="407.5" gradientUnits="userSpaceOnUse">
<stop stop-color="white"/>
<stop offset="1" stop-color="white" stop-opacity="0"/>
</linearGradient>
<linearGradient id="paint2_linear" x1="186.5" y1="280.5" x2="186.5" y2="292.5" gradientUnits="userSpaceOnUse">
<stop stop-color="white"/>
<stop offset="1" stop-color="white" stop-opacity="0"/>
</linearGradient>
<linearGradient id="paint3_linear" x1="360.5" y1="280.5" x2="360.5" y2="292.5" gradientUnits="userSpaceOnUse">
<stop stop-color="white"/>
<stop offset="1" stop-color="white" stop-opacity="0"/>
</linearGradient>
<linearGradient id="paint4_linear" x1="195.004" y1="327.075" x2="199.339" y2="334.439" gradientUnits="userSpaceOnUse">
<stop stop-color="white"/>
<stop offset="1" stop-color="white" stop-opacity="0"/>
</linearGradient>
<linearGradient id="paint5_linear" x1="348.159" y1="236.897" x2="352.494" y2="244.261" gradientUnits="userSpaceOnUse">
<stop stop-color="white"/>
<stop offset="1" stop-color="white" stop-opacity="0"/>
</linearGradient>
<linearGradient id="paint6_linear" x1="189.82" y1="236.321" x2="204.548" y2="244.657" gradientUnits="userSpaceOnUse">
<stop stop-color="white"/>
<stop offset="1" stop-color="white" stop-opacity="0"/>
</linearGradient>
<linearGradient id="paint7_linear" x1="342.974" y1="326.471" x2="357.702" y2="334.807" gradientUnits="userSpaceOnUse">
<stop stop-color="white"/>
<stop offset="1" stop-color="white" stop-opacity="0"/>
</linearGradient>
<linearGradient id="paint8_linear" x1="225.253" y1="200.174" x2="233.922" y2="214.903" gradientUnits="userSpaceOnUse">
<stop stop-color="white"/>
<stop offset="1" stop-color="white" stop-opacity="0"/>
</linearGradient>
<linearGradient id="paint9_linear" x1="273.5" y1="186.5" x2="273.5" y2="204.5" gradientUnits="userSpaceOnUse">
<stop stop-color="white"/>
<stop offset="1" stop-color="white" stop-opacity="0"/>
</linearGradient>
<linearGradient id="paint10_linear" x1="314.247" y1="205.459" x2="321.611" y2="209.627" gradientUnits="userSpaceOnUse">
<stop stop-color="white"/>
<stop offset="1" stop-color="white" stop-opacity="0"/>
</linearGradient>
<linearGradient id="paint11_linear" x1="180.145" y1="260.137" x2="192.377" y2="263.35" gradientUnits="userSpaceOnUse">
<stop stop-color="white"/>
<stop offset="1" stop-color="white" stop-opacity="0"/>
</linearGradient>
<linearGradient id="paint12_linear" x1="354.998" y1="307.919" x2="367.23" y2="311.132" gradientUnits="userSpaceOnUse">
<stop stop-color="white"/>
<stop offset="1" stop-color="white" stop-opacity="0"/>
</linearGradient>
<linearGradient id="paint13_linear" x1="205.213" y1="215.868" x2="214.319" y2="224.798" gradientUnits="userSpaceOnUse">
<stop stop-color="white"/>
<stop offset="1" stop-color="white" stop-opacity="0"/>
</linearGradient>
<linearGradient id="paint14_linear" x1="248.605" y1="190.314" x2="251.995" y2="202.722" gradientUnits="userSpaceOnUse">
<stop stop-color="white"/>
<stop offset="1" stop-color="white" stop-opacity="0"/>
</linearGradient>
<linearGradient id="paint15_linear" x1="293.042" y1="195.445" x2="301.197" y2="197.588" gradientUnits="userSpaceOnUse">
<stop stop-color="white"/>
<stop offset="1" stop-color="white" stop-opacity="0"/>
</linearGradient>
<linearGradient id="paint16_linear" x1="334.72" y1="217.398" x2="340.791" y2="223.352" gradientUnits="userSpaceOnUse">
<stop stop-color="white"/>
<stop offset="1" stop-color="white" stop-opacity="0"/>
</linearGradient>
<linearGradient id="paint17_linear" x1="360.058" y1="257.657" x2="362.318" y2="265.93" gradientUnits="userSpaceOnUse">
<stop stop-color="white"/>
<stop offset="1" stop-color="white" stop-opacity="0"/>
</linearGradient>
<linearGradient id="paint18_linear" x1="185.156" y1="305.444" x2="187.416" y2="313.717" gradientUnits="userSpaceOnUse">
<stop stop-color="white"/>
<stop offset="1" stop-color="white" stop-opacity="0"/>
</linearGradient>
<linearGradient id="paint19_linear" x1="274" y1="212.5" x2="274" y2="323.5" gradientUnits="userSpaceOnUse">
<stop stop-color="white"/>
<stop offset="1" stop-color="white" stop-opacity="0"/>
</linearGradient>
<linearGradient id="paint20_linear" x1="295.5" y1="269.5" x2="295.5" y2="323.5" gradientUnits="userSpaceOnUse">
<stop stop-color="white"/>
<stop offset="1" stop-color="white" stop-opacity="0"/>
</linearGradient>
<linearGradient id="paint21_linear" x1="274" y1="326.5" x2="274" y2="371.5" gradientUnits="userSpaceOnUse">
<stop stop-color="white"/>
<stop offset="1" stop-color="white" stop-opacity="0"/>
</linearGradient>
<linearGradient id="paint22_linear" x1="262.5" y1="349.5" x2="262.5" y2="357.5" gradientUnits="userSpaceOnUse">
<stop stop-color="white"/>
<stop offset="1" stop-color="white" stop-opacity="0"/>
</linearGradient>
<linearGradient id="paint23_linear" x1="285" y1="349.5" x2="285" y2="357.5" gradientUnits="userSpaceOnUse">
<stop stop-color="white"/>
<stop offset="1" stop-color="white" stop-opacity="0"/>
</linearGradient>
</defs>
</svg>
