<svg width="548" height="579" viewBox="0 0 548 579" fill="none" xmlns="http://www.w3.org/2000/svg">
<g filter="url(#filter0_d)">
<path d="M4 95.1315L273.886 0L544 95.1315V478.946L273.886 571L4 478.946V95.1315Z" fill="#08D9D6"/>
</g>
<path d="M378.011 239.81C374.915 242.848 374.915 247.722 378.011 250.759L404.973 277.215H330.988V236.772C330.988 232.468 327.441 228.987 323.055 228.987H281.837V156.456L308.799 182.911C310.347 184.43 312.347 185.19 314.411 185.19C316.475 185.19 318.475 184.43 320.023 182.911C323.119 179.873 323.119 175 320.023 171.962L279.58 132.278C278.096 130.823 276.096 130 273.968 130C271.839 130 269.84 130.823 268.356 132.278L227.913 171.962C224.816 175 224.816 179.873 227.913 182.911C231.009 185.949 235.976 185.949 239.072 182.911L266.034 156.456V229.051H224.816C220.43 229.051 216.883 232.532 216.883 236.835V277.278H142.962L169.924 250.823C173.021 247.785 173.021 242.911 169.924 239.873C166.828 236.835 161.862 236.835 158.765 239.873L118.322 279.557C115.226 282.595 115.226 287.468 118.322 290.506L158.765 330.19C160.314 331.709 162.313 332.468 164.377 332.468C166.441 332.468 168.441 331.709 169.989 330.19C173.085 327.152 173.085 322.278 169.989 319.241L143.027 292.785H217.012V333.228C217.012 337.532 220.559 341.013 224.945 341.013H266.163V413.608L239.136 387.089C236.04 384.051 231.073 384.051 227.977 387.089C224.881 390.127 224.881 395 227.977 398.038L268.421 437.722C269.904 439.177 271.904 440 274.032 440C276.161 440 278.16 439.177 279.644 437.722L320.087 398.038C323.183 395 323.183 390.127 320.087 387.089C316.991 384.051 312.025 384.051 308.928 387.089L281.966 413.544V340.949H323.184C327.57 340.949 331.117 337.468 331.117 333.165V292.722H405.102L378.011 319.177C374.915 322.215 374.915 327.089 378.011 330.127C379.559 331.646 381.559 332.405 383.623 332.405C385.687 332.405 387.686 331.646 389.235 330.127L429.678 290.443C431.161 288.987 432 287.025 432 284.937C432 282.848 431.161 280.886 429.678 279.43L389.235 239.747C386.074 236.772 381.107 236.772 378.011 239.81ZM315.185 325.443H232.75V244.557H315.185V325.443Z" fill="white"/>
<defs>
<filter id="filter0_d" x="0" y="0" width="548" height="579" filterUnits="userSpaceOnUse" color-interpolation-filters="sRGB">
<feFlood flood-opacity="0" result="BackgroundImageFix"/>
<feColorMatrix in="SourceAlpha" type="matrix" values="0 0 0 0 0 0 0 0 0 0 0 0 0 0 0 0 0 0 127 0"/>
<feOffset dy="4"/>
<feGaussianBlur stdDeviation="2"/>
<feColorMatrix type="matrix" values="0 0 0 0 0 0 0 0 0 0 0 0 0 0 0 0 0 0 0.25 0"/>
<feBlend mode="normal" in2="BackgroundImageFix" result="effect1_dropShadow"/>
<feBlend mode="normal" in="SourceGraphic" in2="effect1_dropShadow" result="shape"/>
</filter>
</defs>
</svg>
