<svg width="55" height="55" viewBox="0 0 55 55" fill="none" xmlns="http://www.w3.org/2000/svg">
<path d="M0 0H55V55H0V0Z" fill="#222831"/>
<path d="M32.8766 43.7897C32.6965 43.8493 32.5154 43.9213 32.33 43.9512C31.6198 44.0679 31.1648 43.7331 31.1598 43.0691C31.149 41.836 31.1476 40.6049 31.1682 39.3718C31.1896 37.9538 31.1524 36.554 29.9704 35.3854C30.6721 35.2697 31.2964 35.1886 31.907 35.0595C35.9519 34.2053 38.0508 31.8691 38.3145 27.9952C38.4495 26.0233 38.063 24.2148 36.6281 22.6633C36.5242 22.5541 36.5187 22.306 36.5678 22.1469C36.9476 20.8626 36.8352 19.6086 36.3895 18.354C36.2792 18.0408 36.0968 17.9442 35.7584 17.9647C34.5705 18.0263 33.4825 18.4088 32.5235 18.9962C31.5991 19.5654 30.7381 19.6899 29.6389 19.4611C27.2184 18.9646 24.7829 19.1128 22.3687 19.627C22.0953 19.6867 21.7275 19.6076 21.477 19.4737C20.3428 18.8675 19.2086 18.2786 17.9009 18.0443C16.8898 17.8652 16.8018 17.9113 16.5346 18.8055C16.1986 19.9326 16.1664 21.0603 16.5123 22.1934C16.5618 22.3581 16.5107 22.6226 16.3904 22.7444C13.7148 25.4808 14.6908 30.6449 16.4981 32.6214C17.9036 34.1567 19.7692 34.8465 21.8396 35.2035C22.2011 35.2645 22.5605 35.311 22.922 35.3681C22.6128 36.1062 22.3349 36.803 22.0204 37.4884C21.9587 37.6207 21.7629 37.732 21.6027 37.7878C19.5733 38.5105 17.8273 37.9825 16.6636 36.2985C16.0413 35.4004 15.2433 34.7297 14.0551 34.5364C14.0174 34.5298 13.9786 34.5116 13.9441 34.5164C13.6246 34.5934 13.3083 34.6743 12.9899 34.7532C13.1693 34.981 13.2965 35.2875 13.5365 35.4242C14.5439 36.0056 15.1996 36.8356 15.6334 37.8153C16.3151 39.3514 17.6359 40.035 19.351 40.1673C20.1881 40.2286 21.0334 40.175 21.9501 40.1741C21.9512 41.1283 21.9901 42.2176 21.938 43.3023C21.9114 43.8868 21.2695 44.1212 20.5002 43.8825C18.4598 43.2466 16.5678 42.3337 14.9331 41.0497C9.03082 36.4102 6.75078 30.5394 8.70301 23.6629C10.649 16.8085 15.7366 12.5998 23.3491 11.2723C33.8829 9.43862 43.8715 16.445 44.9282 26.2252C45.7625 33.9351 40.8082 41.1559 32.8766 43.7897ZM22.9346 35.3317C22.9283 35.3451 22.9241 35.3547 22.9178 35.3681C22.9367 35.371 22.9556 35.3738 22.9755 35.3767C22.9901 35.3776 23.0027 35.4016 22.9346 35.3317ZM18.1714 38.3845C18.336 38.4773 18.4933 38.595 18.6714 38.6456C18.7364 38.6647 18.8567 38.5294 19.0692 38.3855C18.7737 38.2833 18.5997 38.1934 18.4163 38.1706C18.3451 38.163 18.253 38.3097 18.1714 38.3845ZM19.6729 38.6186C19.6971 38.7192 19.9162 38.8445 20.0451 38.8424C20.1697 38.8404 20.2911 38.6889 20.4156 38.6025C20.3024 38.5078 20.1891 38.4159 19.841 38.1298C19.7658 38.3292 19.6413 38.4903 19.6729 38.6186ZM21.5141 38.2114C21.3591 38.2451 21.2283 38.3765 21.087 38.4667C21.1699 38.5624 21.2527 38.6514 21.386 38.8017C21.5691 38.6482 21.6937 38.5417 21.8193 38.4381C21.7144 38.3549 21.5916 38.194 21.5141 38.2114ZM16.948 37.6481C17.0341 37.7965 17.1673 37.9248 17.3477 38.1344C17.468 37.9542 17.5988 37.8161 17.5757 37.7883C17.4613 37.6514 17.3062 37.5395 17.1531 37.4371C17.1426 37.4295 16.9301 37.6156 16.948 37.6481Z" fill="white"/>
</svg>
