<svg width="548" height="579" viewBox="0 0 548 579" fill="none" xmlns="http://www.w3.org/2000/svg">
<g filter="url(#filter0_d)">
<path d="M4 95.1315L273.886 0L544 95.1315V478.946L273.886 571L4 478.946V95.1315Z" fill="#08D9D6"/>
</g>
<path d="M343.217 208.272C324.012 193.764 298.785 186.287 272.094 187.054C220.909 188.651 179.163 222.653 179.001 262.917C178.919 280.748 186.894 298.132 201.46 311.809C222.455 331.622 234.01 356.612 234.01 382.24C234.01 382.24 231.813 394 242.474 394H309.527C320.431 394 317.99 382.24 317.99 382.24C317.99 357.187 329.708 332.389 351.924 310.531C365.676 296.918 373 280.557 373 263.173C373 242.273 362.421 222.716 343.217 208.272ZM338.66 302.223C314.491 325.998 301.552 353.096 301.064 380.706H250.937C250.448 352.521 237.591 325.103 214.48 303.309C202.518 291.997 195.927 277.681 196.008 262.981C196.171 229.747 230.593 201.689 272.827 200.347C294.879 199.708 315.712 205.908 331.498 217.859C347.367 229.811 356.074 245.916 356.074 263.173C355.992 277.553 350.052 291.038 338.66 302.223Z" fill="white"/>
<path d="M388.407 164.996C384.95 162.335 379.384 162.335 376.011 164.996L354.593 181.485C351.136 184.147 351.136 188.431 354.593 191.028C358.05 193.625 363.616 193.69 366.989 191.028L388.407 174.539C391.864 171.942 391.864 167.658 388.407 164.996Z" fill="white"/>
<path d="M309.6 403H242.4C237.715 403 234 405.486 234 408.5C234 411.567 237.796 414 242.4 414H309.6C314.285 414 318 411.514 318 408.5C318 405.486 314.204 403 309.6 403Z" fill="white"/>
<path d="M297.537 427H255.463C250.743 427 247 429.937 247 433.5C247 437.125 250.825 440 255.463 440H297.537C302.257 440 306 437.063 306 433.5C306 429.937 302.175 427 297.537 427Z" fill="white"/>
<path d="M276 165C281.019 165 285 162.099 285 158.58V136.42C285 132.84 280.933 130 276 130C271.067 130 267 132.901 267 136.42V158.58C267 162.16 270.981 165 276 165Z" fill="white"/>
<path d="M197.405 191.051C200.865 188.387 200.865 184.099 197.405 181.5L175.969 164.998C172.509 162.334 166.939 162.334 163.564 164.998C160.188 167.662 160.103 171.95 163.564 174.548L184.999 191.051C188.459 193.65 194.029 193.65 197.405 191.051V191.051Z" fill="white"/>
<path d="M425.563 246H396.437C391.732 246 388 248.937 388 252.5C388 256.063 391.813 259 396.437 259H425.563C430.268 259 434 256.063 434 252.5C434 248.937 430.187 246 425.563 246Z" fill="white"/>
<path d="M155.563 246H126.437C121.732 246 118 248.937 118 252.5C118 256.063 121.813 259 126.437 259H155.563C160.268 259 164 256.063 164 252.5C164 248.937 160.268 246 155.563 246V246Z" fill="white"/>
<defs>
<filter id="filter0_d" x="0" y="0" width="548" height="579" filterUnits="userSpaceOnUse" color-interpolation-filters="sRGB">
<feFlood flood-opacity="0" result="BackgroundImageFix"/>
<feColorMatrix in="SourceAlpha" type="matrix" values="0 0 0 0 0 0 0 0 0 0 0 0 0 0 0 0 0 0 127 0"/>
<feOffset dy="4"/>
<feGaussianBlur stdDeviation="2"/>
<feColorMatrix type="matrix" values="0 0 0 0 0 0 0 0 0 0 0 0 0 0 0 0 0 0 0.25 0"/>
<feBlend mode="normal" in2="BackgroundImageFix" result="effect1_dropShadow"/>
<feBlend mode="normal" in="SourceGraphic" in2="effect1_dropShadow" result="shape"/>
</filter>
</defs>
</svg>
