<svg width="55" height="55" viewBox="0 0 55 55" fill="none" xmlns="http://www.w3.org/2000/svg">
<rect width="55" height="55" fill="#222831"/>
<path d="M16.7211 42H11.2789C10.5726 42 10 41.378 10 40.6107V15.3893C10 14.622 10.5726 14 11.2789 14H16.7211C17.4274 14 18 14.622 18 15.3893V40.6108C17.9999 41.378 17.4274 42 16.7211 42Z" fill="white"/>
<path d="M45 22.6669C45 17.3281 41.3689 13 36.8895 13H35.605C33.1544 13 30.9894 14.4574 29.6871 16.685C29.5451 16.9278 29.4136 17.1799 29.2929 17.4402C29.2511 17.4327 29.2264 17.4289 29.2258 17.4302V14.3043C29.2258 13.9827 29.0071 13.7219 28.7372 13.7219H22.4886C22.2188 13.7219 22 13.9826 22 14.3043V41.4119C22 41.7334 22.2186 41.9941 22.4884 41.9943L28.8732 41.9961C29.1431 41.9963 29.3619 41.7354 29.3619 41.4137V25.753C29.3619 23.0459 31.1734 20.7982 33.4445 20.7676C34.6038 20.752 35.6548 21.3057 36.4123 22.2091C37.1599 23.0996 37.6221 24.3308 37.6221 25.6902V41.4157C37.6221 41.7373 37.8408 41.998 38.1105 41.9981L44.511 42C44.7809 42.0001 44.9998 41.7393 44.9998 41.4176V22.6669H45Z" fill="white"/>
</svg>
