<svg width="548" height="579" viewBox="0 0 548 579" fill="none" xmlns="http://www.w3.org/2000/svg">
<g filter="url(#filter0_d)">
<path d="M4 95.1315L273.886 0L544 95.1315V478.946L273.886 571L4 478.946V95.1315Z" fill="#08D9D6"/>
</g>
<path d="M358.452 420.176H323.932C322.686 420.176 321.668 418.904 321.668 417.344V406.832C321.668 405.274 320.65 404 319.404 404H271.102C269.856 404 268.837 405.274 268.837 406.832V417.344C268.837 418.904 267.819 420.176 266.573 420.176H240.621C239.375 420.176 238.357 421.45 238.357 423.007V435.168C238.357 436.726 239.375 438 240.621 438H358.45C359.695 438 360.714 436.726 360.714 435.168V423.007C360.715 421.453 359.697 420.176 358.452 420.176Z" fill="white" stroke="white" stroke-width="4"/>
<path d="M416.56 130H171.882C163.369 130 156.444 138.929 156.444 149.905C156.444 149.905 156.444 187.858 156.444 201.821C156.444 208.684 156.049 209.655 159.621 209.655C161.518 209.655 163.618 209.655 165.745 209.655C168.743 209.655 168.128 208.684 168.128 201.693C168.128 187.762 168.128 149.905 168.128 149.905C168.128 147.281 169.848 145.064 171.882 145.064H416.56C418.593 145.064 420.314 147.281 420.314 149.905V344.226H245.874C245.874 344.226 239.726 344.212 239.726 354.46C239.726 360.536 239.726 372.688 239.726 378.766C239.726 389 246.073 389 246.073 389H416.56C425.072 389 432 380.072 432 369.098V149.905C432 138.93 425.074 130 416.56 130ZM294.222 371.815C290.378 371.815 287.263 367.799 287.263 362.847C287.263 357.895 290.378 353.878 294.222 353.878C298.062 353.878 301.178 357.895 301.178 362.847C301.178 367.799 298.062 371.815 294.222 371.815Z" fill="white" stroke="white" stroke-width="3"/>
<path d="M214.554 227H125.972C120.472 227 116 232.755 116 239.832V427.167C116 434.243 120.472 440 125.972 440H214.554C220.05 440 224.525 434.243 224.525 427.167V239.832C224.525 232.755 220.05 227 214.554 227ZM159.336 240.087H181.189C182.231 240.087 183.078 241.174 183.078 242.519C183.078 243.862 182.232 244.95 181.189 244.95H159.336C158.292 244.95 157.447 243.862 157.447 242.519C157.447 241.174 158.292 240.087 159.336 240.087ZM170.13 430.987C167.28 430.987 164.969 428.014 164.969 424.347C164.969 420.679 167.28 417.706 170.13 417.706C172.98 417.706 175.291 420.679 175.291 424.347C175.291 428.014 172.98 430.987 170.13 430.987ZM215.957 411.47C215.957 413.183 214.892 414.583 213.591 414.583H126.936C125.635 414.583 124.57 413.183 124.57 411.47V255.801C124.57 254.089 125.636 252.69 126.936 252.69H213.591C214.893 252.69 215.957 254.09 215.957 255.801V411.47Z" fill="white" stroke="white" stroke-width="3"/>
<defs>
<filter id="filter0_d" x="0" y="0" width="548" height="579" filterUnits="userSpaceOnUse" color-interpolation-filters="sRGB">
<feFlood flood-opacity="0" result="BackgroundImageFix"/>
<feColorMatrix in="SourceAlpha" type="matrix" values="0 0 0 0 0 0 0 0 0 0 0 0 0 0 0 0 0 0 127 0"/>
<feOffset dy="4"/>
<feGaussianBlur stdDeviation="2"/>
<feColorMatrix type="matrix" values="0 0 0 0 0 0 0 0 0 0 0 0 0 0 0 0 0 0 0.25 0"/>
<feBlend mode="normal" in2="BackgroundImageFix" result="effect1_dropShadow"/>
<feBlend mode="normal" in="SourceGraphic" in2="effect1_dropShadow" result="shape"/>
</filter>
</defs>
</svg>
